<?xml version="1.0" encoding="utf-8"?>
<!-- Generator: Adobe Illustrator 23.0.1, SVG Export Plug-In . SVG Version: 6.00 Build 0)  -->
<svg version="1.1" id="Layer_1" xmlns="http://www.w3.org/2000/svg" xmlns:xlink="http://www.w3.org/1999/xlink" x="0px" y="0px"
	 viewBox="0 0 595.3 841.9" style="enable-background:new 0 0 595.3 841.9;" xml:space="preserve">
<style type="text/css">
	.st0{fill:#FFFFFF;stroke:#000000;stroke-miterlimit:10;}
</style>
<path class="st0" d="M159.5,234.5h25c0.8,0,1.5,0.7,1.5,1.5v34.5c0,0.8-0.7,1.5-1.5,1.5h-25c-0.8,0-1.5-0.7-1.5-1.5V236
	C158,235.2,158.7,234.5,159.5,234.5z"/>
<path class="st0" d="M-270.5-109L-270.5-109c-0.8,0-1.5-0.7-1.5-1.5v0c0-0.8,0.7-1.5,1.5-1.5h0c0.8,0,1.5,0.7,1.5,1.5v0
	C-269-109.7-269.7-109-270.5-109z"/>
</svg>
